<svg xmlns="http://www.w3.org/2000/svg" width="900" height="318" viewBox="0 0 900 318">
<rect width="900" height="100%" rx="18" fill="#040408"/>
<text x="42" y="48" fill="#22d3ee" font-family="Arial, Helvetica, sans-serif" font-size="24" font-weight="700">LANGUAGE ACTIVITY</text>
<text x="42" y="76" fill="#94a3b8" font-family="Arial, Helvetica, sans-serif" font-size="13">Automatically generated from public repositories</text>
<line x1="42" y1="98" x2="858" y2="98" stroke="#1e293b"/>
<text x="42" y="141" fill="#f8fafc" font-family="Arial, Helvetica, sans-serif" font-size="15">Wolfram Language</text>
<rect x="170" y="128" width="650" height="16" rx="8" fill="#111827"/>
<rect x="170" y="128" width="289.57" height="16" rx="8" fill="#22d3ee"/>
<text x="858" y="141" text-anchor="end" fill="#a5f3fc" font-family="Arial, Helvetica, sans-serif" font-size="14">44.5%</text>
<text x="42" y="181" fill="#f8fafc" font-family="Arial, Helvetica, sans-serif" font-size="15">C#</text>
<rect x="170" y="168" width="650" height="16" rx="8" fill="#111827"/>
<rect x="170" y="168" width="181.67" height="16" rx="8" fill="#e879f9"/>
<text x="858" y="181" text-anchor="end" fill="#a5f3fc" font-family="Arial, Helvetica, sans-serif" font-size="14">27.9%</text>
<text x="42" y="221" fill="#f8fafc" font-family="Arial, Helvetica, sans-serif" font-size="15">Python</text>
<rect x="170" y="208" width="650" height="16" rx="8" fill="#111827"/>
<rect x="170" y="208" width="143.97" height="16" rx="8" fill="#a5f3fc"/>
<text x="858" y="221" text-anchor="end" fill="#a5f3fc" font-family="Arial, Helvetica, sans-serif" font-size="14">22.1%</text>
<text x="42" y="261" fill="#f8fafc" font-family="Arial, Helvetica, sans-serif" font-size="15">C++</text>
<rect x="170" y="248" width="650" height="16" rx="8" fill="#111827"/>
<rect x="170" y="248" width="34.80" height="16" rx="8" fill="#22d3ee"/>
<text x="858" y="261" text-anchor="end" fill="#a5f3fc" font-family="Arial, Helvetica, sans-serif" font-size="14">5.4%</text>
<text x="42" y="308" fill="#94a3b8" font-family="Arial, Helvetica, sans-serif" font-size="12">Generated by GitHub Actions • MyBeClean</text>
</svg>
